<?xml version="1.0" encoding="UTF-8"?>
<svg width="24" height="24" version="1.1" viewBox="0 0 6.3 6.3" xmlns="http://www.w3.org/2000/svg">
 <g transform="matrix(.15 0 0 .15 -7.5 -19)" fill="#fff" stroke="#000" stroke-width="1.5">
  <g aria-label="p">
   <path d="m58 168v-40h4.5q1.4 0 1.9 1.3l0.59 2.8q1.8-2.1 4.2-3.4t5.6-1.3q2.5 0 4.5 1 2.1 1 3.6 3t2.3 4.9q0.83 2.9 0.83 6.6 0 3.4-0.92 6.3t-2.6 5q-1.7 2.1-4.1 3.3t-5.4 1.2q-2.6 0-4.4-0.77-1.8-0.8-3.2-2.2v12zm14-35q-2.3 0-3.9 0.98-1.6 0.95-3 2.7v14q1.2 1.5 2.7 2.2 1.5 0.59 3.2 0.59t3-0.62 2.3-1.9q0.95-1.3 1.5-3.2 0.5-2 0.5-4.6 0-2.7-0.44-4.5-0.41-1.9-1.2-3t-2-1.7q-1.1-0.53-2.6-0.53z"/>
  </g>
  <g aria-label="r">
   <path d="m58 158v-30h4.3q1.1 0 1.6 0.41 0.44 0.38 0.59 1.4l0.41 3.4q1.5-2.7 3.4-4.3 2-1.6 4.6-1.6 2.1 0 3.4 0.92l-0.47 5.5q-0.15 0.53-0.44 0.77-0.27 0.21-0.74 0.21-0.44 0-1.3-0.15t-1.7-0.15q-1.2 0-2.2 0.36t-1.7 1q-0.74 0.65-1.3 1.6t-1.1 2.2v19z"/>
  </g>
 </g>
</svg>
