<?xml version="1.0" encoding="UTF-8"?>
<svg width="149mm" height="55mm" version="1.1" viewBox="0 0 149 55" xmlns="http://www.w3.org/2000/svg">
 <g transform="translate(-58 -120)">
  <path transform="matrix(.26 0 0 .26 58 120)" d="m456 2.8v166h18c1.9 0 3.3-0.41 4.4-1.2 1.1-0.82 1.9-2.2 2.4-4.1l1.2-7.7c1.9 2.2 3.8 4.3 5.8 6.2 2.1 1.8 4.3 3.3 6.7 4.6 2.5 1.3 5.1 2.2 8.1 2.9 3 0.75 6.3 1.1 9.8 1.1 7.4 0 14-1.5 20-4.5 6-3 11-7.2 15-13 4.3-5.4 7.6-12 10-20 2.3-7.6 3.5-16 3.5-25 0-8.7-1-16-3-23s-4.9-13-8.7-18c-3.7-4.9-8.3-8.7-14-11-5.3-2.6-11-3.9-18-3.9-7.2 0-14 1.5-19 4.4-5.6 2.8-11 6.7-15 12v-66h-28zm-397 49c-6.7 0-13 2-17 5.9-4.9 3.9-9.2 9.3-13 16l-1.6-13c-0.37-2.6-1.1-4.4-2.2-5.4-1.1-1-3.1-1.6-5.9-1.6h-16v115h28v-71c1.3-3.1 2.6-5.8 4-8.2 1.5-2.4 3.2-4.4 5-6 1.9-1.7 4.1-3 6.5-3.9 2.4-0.9 5.1-1.3 8.2-1.3 2.1 0 4.2 0.19 6.4 0.56 2.2 0.37 3.9 0.56 5 0.56 1.2 0 2.1-0.26 2.8-0.79 0.75-0.6 1.3-1.6 1.7-2.9l1.8-21c-3.2-2.3-7.5-3.5-13-3.5zm207 0c-8.1 0-15 1.6-21 4.9-6 3.3-11 7.6-16 13l-2.2-11c-1.1-3.4-3.5-5-7.1-5h-17v152h28v-47c3.6 3.5 7.6 6.3 12 8.3 4.6 1.9 10 2.9 17 2.9 7.5 0 14-1.5 20-4.5 6.1-3.1 11-7.3 16-13 4.3-5.4 7.6-12 10-19 2.3-7.3 3.5-15 3.5-24 0-9.4-1-18-3.1-25-2-7.3-4.9-13-8.7-18-3.7-5-8.2-8.8-13-11-5.1-2.6-11-3.9-17-3.9zm-134 0.34c-8.6 0-16 1.5-23 4.5-6.8 3-13 7.1-17 12-4.7 5.1-8.3 11-11 18-2.5 6.9-3.8 14-3.8 22 0 10 1.5 19 4.4 27 2.9 7.6 6.9 14 12 19 5.1 5.1 11 9.1 18 12 6.9 2.6 14 3.9 22 3.9 4 0 8.2-0.3 12-0.9 4.3-0.6 8.5-1.6 13-3 4.2-1.5 8.2-3.4 12-5.8 3.8-2.5 7.2-5.5 10-9.1l-7.9-10c-1.1-1.7-2.8-2.6-5.1-2.6-1.7 0-3.5 0.52-5.4 1.6-1.8 1-3.9 2.2-6.4 3.5-2.4 1.3-5.2 2.4-8.5 3.5-3.2 1-7.1 1.6-12 1.6-4.5 0-8.6-0.67-12-2-3.7-1.4-6.8-3.5-9.5-6.3-2.7-2.8-4.9-6.4-6.5-11-1.6-4.3-2.7-9.4-3.1-15h71c2.5 0 4.3-0.71 5.1-2.1 0.9-1.5 1.3-4.3 1.3-8.5 0-8.3-1.3-16-3.8-22-2.5-6.5-5.9-12-10-16-4.4-4.5-9.7-7.9-16-10-6.1-2.3-13-3.5-20-3.5zm197 1.8v73c0 6.4 0.82 12 2.5 18 1.7 5.3 4.2 9.9 7.5 14 3.3 3.9 7.3 6.9 12 9.1 4.8 2.1 10 3.1 17 3.1 3.9 0 7.5-0.37 11-1.1 3.3-0.75 6.4-1.8 9.3-3.2s5.6-3.1 8.2-5c2.5-2 5-4.2 7.4-6.6l1.9 9.2c0.97 3.4 3.3 5 6.9 5h17v-115h-28v83c-3.7 3.7-7.7 6.7-12 8.8-4.2 2.1-8.7 3.1-13 3.1-6.5 0-11-1.9-15-5.7-3.2-3.9-4.8-9.3-4.8-16v-73h-28zm-196 18c4.1 0 7.7 0.71 11 2.1 3.1 1.3 5.7 3.2 7.7 5.6 2 2.4 3.5 5.2 4.5 8.4 1 3.1 1.6 6.5 1.6 10h-52c1.3-8.4 4.2-15 8.7-19 4.6-4.6 11-6.8 19-6.8zm124 1.7c3.7 0 6.9 0.67 9.7 2 2.9 1.3 5.4 3.5 7.4 6.4 2 2.9 3.5 6.7 4.6 11 1.1 4.6 1.7 10 1.7 17 0 6.6-0.63 12-1.9 17-1.3 4.8-3.1 8.9-5.5 12-2.3 3.2-5.1 5.6-8.5 7.2-3.4 1.6-7.1 2.4-11 2.4-4.3 0-8.4-0.75-12-2.2-3.7-1.6-7.1-4.3-10-8.2v-51c3.5-4.4 7.3-7.8 11-10 4.1-2.5 9-3.7 15-3.7zm252 0c7.8 0 14 2.8 18 8.5 4.2 5.6 6.3 15 6.3 27 0 7-0.63 13-1.9 18-1.3 5-3.1 9.1-5.5 12-2.4 3.2-5.3 5.6-8.7 7.2-3.4 1.5-7.2 2.2-11 2.2-4.1 0-8-0.75-12-2.2-3.7-1.6-7.1-4.3-10-8.2v-51c3.6-4.4 7.3-7.8 11-10 4-2.5 8.6-3.7 14-3.7z" fill="#fff" stroke="#000" stroke-width="5.6"/>
 </g>
</svg>
